<svg viewBox="0 0 238 215" fill="none" xmlns="http://www.w3.org/2000/svg">
<path d="M100.952 213.611L137.951 213.445L54.287 65.8195L146.286 65.406L163.647 34.3277L1.14819 35.058L100.952 213.611Z" fill="#18A16A"/>
<path d="M236.646 33.9997L137.951 213.445L54.287 65.8195L90.2866 65.6578L137.664 149.446L218.498 1.08093L236.646 33.9997Z" fill="#0D583A"/>
<path d="M17.9998 1.982L218.498 1.08093L137.664 149.446L119.016 116.529L163.647 34.3277L1.14819 35.058L17.9998 1.982Z" fill="#32F1A5"/>
<path d="M137.951 213.445L100.952 213.611L1.14819 35.058M137.951 213.445L54.287 65.8195M137.951 213.445L236.646 33.9997L218.498 1.08093M1.14819 35.058L163.647 34.3277M1.14819 35.058L17.9998 1.982L218.498 1.08093M163.647 34.3277L146.286 65.406L54.287 65.8195M163.647 34.3277L119.016 116.529L137.664 149.446M54.287 65.8195L90.2866 65.6578L137.664 149.446M218.498 1.08093L137.664 149.446" stroke="black" stroke-opacity="0.2"/>
</svg>
