
<svg viewBox="0 0 800 400" fill="none" xmlns="http://www.w3.org/2000/svg">
<title id="svgTitle">A nested Venn diagram showing the hierarchy of formal language classes in computer science. From outermost to innermost: Recursively Enumerable contains Context Sensitive, which contains Context Free, which contains Regular languages. Each class is represented by an oval shape, creating a concentric pattern.</title>
<path class="stroke" d="M798.5 200C798.5 254.354 754.398 303.967 682.172 340.08C610.035 376.148 510.275 398.5 400 398.5C289.725 398.5 189.965 376.148 117.828 340.08C45.6018 303.967 1.5 254.354 1.5 200C1.5 145.646 45.6018 96.0334 117.828 59.9203C189.965 23.852 289.725 1.5 400 1.5C510.275 1.5 610.035 23.852 682.172 59.9203C754.398 96.0334 798.5 145.646 798.5 200Z" stroke-width="3"/>
<path class="stroke" d="M698.5 250C698.5 290.547 665.591 327.659 611.461 354.724C557.421 381.744 482.66 398.5 400 398.5C317.34 398.5 242.579 381.744 188.539 354.724C134.409 327.659 101.5 290.547 101.5 250C101.5 209.453 134.409 172.341 188.539 145.276C242.579 118.256 317.34 101.5 400 101.5C482.66 101.5 557.421 118.256 611.461 145.276C665.591 172.341 698.5 209.453 698.5 250Z" stroke-width="3"/>
<path class="stroke" d="M598.5 300C598.5 326.74 576.784 351.352 540.751 369.369C504.807 387.341 455.046 398.5 400 398.5C344.954 398.5 295.193 387.341 259.249 369.369C223.216 351.352 201.5 326.74 201.5 300C201.5 273.26 223.216 248.648 259.249 230.631C295.193 212.659 344.954 201.5 400 201.5C455.046 201.5 504.807 212.659 540.751 230.631C576.784 248.648 598.5 273.26 598.5 300Z" stroke-width="3"/>
<path class="stroke" d="M498.5 350C498.5 362.933 487.977 375.045 470.04 384.014C452.193 392.937 427.432 398.5 400 398.5C372.568 398.5 347.807 392.937 329.96 384.014C312.023 375.045 301.5 362.933 301.5 350C301.5 337.067 312.023 324.955 329.96 315.986C347.807 307.063 372.568 301.5 400 301.5C427.432 301.5 452.193 307.063 470.04 315.986C487.977 324.955 498.5 337.067 498.5 350Z" stroke-width="3"/>
<text class="text" xml:space="preserve" style="white-space: pre" font-size="16" letter-spacing="0em"><tspan x="371" y="355.318">Regular</tspan></text>
<text class="text" xml:space="preserve" style="white-space: pre" font-size="16" letter-spacing="0em"><tspan x="309.82" y="57.3182">Recursively Enumerable</tspan></text>
<text class="text" xml:space="preserve" style="white-space: pre" font-size="16" letter-spacing="0em"><tspan x="351" y="257.318">Context Free</tspan></text>
<text class="text" xml:space="preserve" style="white-space: pre" font-size="16" letter-spacing="0em"><tspan x="333" y="157.318">Context Sensitive</tspan></text>
</svg>
